<?xml version="1.0" encoding="UTF-8" standalone="no"?>
<svg
   xmlns:dc="http://purl.org/dc/elements/1.1/"
   xmlns:cc="http://creativecommons.org/ns#"
   xmlns:rdf="http://www.w3.org/1999/02/22-rdf-syntax-ns#"
   xmlns:svg="http://www.w3.org/2000/svg"
   xmlns="http://www.w3.org/2000/svg"
   xmlns:sodipodi="http://sodipodi.sourceforge.net/DTD/sodipodi-0.dtd"
   xmlns:inkscape="http://www.inkscape.org/namespaces/inkscape"
   viewBox="0 0 68.000001 68"
   version="1.1"
   id="svg39"
   sodipodi:docname="bitbucket.svg"
   width="68"
   height="68"
   inkscape:version="0.92.3 (2405546, 2018-03-11)">
  <metadata
     id="metadata43">
    <rdf:RDF>
      <cc:Work
         rdf:about="">
        <dc:format>image/svg+xml</dc:format>
        <dc:type
           rdf:resource="http://purl.org/dc/dcmitype/StillImage" />
        <dc:title>Bitbucket-blue</dc:title>
      </cc:Work>
    </rdf:RDF>
  </metadata>
  <sodipodi:namedview
     pagecolor="#ffffff"
     bordercolor="#666666"
     borderopacity="1"
     objecttolerance="10"
     gridtolerance="10"
     guidetolerance="10"
     inkscape:pageopacity="0"
     inkscape:pageshadow="2"
     inkscape:window-width="1299"
     inkscape:window-height="713"
     id="namedview41"
     showgrid="false"
     fit-margin-top="2"
     fit-margin-left="2"
     fit-margin-right="2"
     fit-margin-bottom="2"
     inkscape:zoom="1.0907269"
     inkscape:cx="33.348821"
     inkscape:cy="10.963422"
     inkscape:window-x="67"
     inkscape:window-y="27"
     inkscape:window-maximized="1"
     inkscape:current-layer="Blue" />
  <defs
     id="defs9">
    <style
       id="style2">.cls-1{fill:#253858;}.cls-2{fill:none;}.cls-3{fill:#2684ff;}.cls-4{fill:url(#New_Gradient_Swatch_1);}</style>
    <linearGradient
       id="New_Gradient_Swatch_1"
       x1="64.010002"
       y1="30.27"
       x2="32.990002"
       y2="54.48"
       gradientUnits="userSpaceOnUse">
      <stop
         offset="0.18"
         stop-color="#0052cc"
         id="stop4" />
      <stop
         offset="1"
         stop-color="#2684ff"
         id="stop6" />
    </linearGradient>
  </defs>
  <title
     id="title11">Bitbucket-blue</title>
  <g
     id="Blue"
     transform="translate(2.0257929,3.6098352)">
    <polygon
       style="fill:none"
       id="polygon31"
       points="40.9,25.12 21.23,25.12 24.7,43.51 37.75,43.51 "
       class="cls-2" />
    <path
       style="fill:#2684ff"
       inkscape:connector-curvature="0"
       id="path33"
       d="m 2.7892071,2.3251651 a 2,2 0 0 0 -2,2.32 l 8.49,51.5399999 a 2.72,2.72 0 0 0 2.6599999,2.27 h 40.73 a 2,2 0 0 0 2,-1.68 l 8.49,-52.1199999 a 2,2 0 0 0 -2,-2.32 z M 38.539207,39.575165 h -13 l -3.52,-18.39 h 19.67 z"
       class="cls-3" />
    <path
       inkscape:connector-curvature="0"
       style="fill:url(#New_Gradient_Swatch_1)"
       id="path35"
       d="M 59.67,25.12 H 40.9 l -3.15,18.39 h -13 L 9.4,61.73 a 2.71,2.71 0 0 0 1.75,0.66 h 40.74 a 2,2 0 0 0 2,-1.68 z"
       class="cls-4" />
  </g>
</svg>
